<?xml version="1.0" encoding="utf-8"?>
<!-- Generator: Adobe Illustrator 19.2.1, SVG Export Plug-In . SVG Version: 6.00 Build 0)  -->
<svg version="1.1" id="Layer_1" xmlns="http://www.w3.org/2000/svg" xmlns:xlink="http://www.w3.org/1999/xlink" x="0px" y="0px"
	 viewBox="0 0 512 509.9" style="enable-background:new 0 0 512 509.9;" xml:space="preserve">
<style type="text/css">
	.st0{fill:#FFFFFF;}
</style>
<title>s round right</title>
<path class="st0" d="M307.2,43.1c90.4,0,163.8,73.3,163.8,163.8s-73.3,163.8-163.8,163.8s-163.8-73.3-163.8-163.8c0,0,0,0,0,0
	C143.4,116.4,216.7,43.1,307.2,43.1 M307.2,2.1C194,2.2,102.4,94,102.5,207.2c0.1,82.2,49.3,156.3,124.9,188.4
	c104.3,43.7,224.4-5.4,268.1-109.8c43.5-103.9-5-223.5-108.6-267.6C361.7,7.5,334.6,2,307.2,2.1L307.2,2.1L307.2,2.1z"/>
<path class="st0" d="M8.6,472.3l102.8-102.8c9.9-9.9,24.5-11.5,32.5-3.5s6.4,22.6-3.5,32.5L37.6,501.3c-9.9,9.9-24.5,11.5-32.5,3.5
	S-1.3,482.2,8.6,472.3z"/>
</svg>
